simulation
nRows=55
nColumns=15
endheader
time  TH_x TH_y TH_z SC_y  SC_z  SC_x  AC_y  AC_z  AC_x  GH_y  GH_z  GH_yy  EL_x  PS_y
0.500153  0.000000  0.000000  0.000000  -26.010657  17.713999  22.185719  49.399382  -18.840824  -13.253482  -11.299336  26.473872  3.316592  18.147030  118.928636
0.500458  0.000000  0.000000  0.000000  -15.498796  19.362242  22.185719  56.669310  -7.160400  -7.066385  6.034151  37.620028  -3.919711  18.793896  135.221365
0.500763  0.000000  0.000000  0.000000  -20.751969  18.102924  22.185719  47.214088  -20.707484  -13.161143  5.228261  41.808472  2.200015  24.074568  133.934278
0.501068  0.000000  0.000000  0.000000  -19.442783  14.780039  22.185719  52.327895  -14.350410  -16.156687  -12.242259  22.667682  6.357986  28.295262  135.664262
0.501373  0.000000  0.000000  0.000000  -46.284721  17.068752  22.185719  51.943224  -21.723814  -6.049958  -0.495923  35.519040  6.856979  22.412107  117.103515
0.501678  0.000000  0.000000  0.000000  -34.770607  0.974691  0.892506  45.636080  12.949064  -0.109659  -3.376128  30.631814  -2.684567  26.327500  126.512243
0.501984  0.000000  0.000000  0.000000  -34.770607  0.974691  -9.107494  43.525682  19.978451  7.313232  -3.376128  30.631814  -2.684567  26.327500  126.512243
0.502289  0.000000  0.000000  0.000000  -17.129569  12.355628  -9.107494  46.062172  -1.097751  -0.990633  5.963164  22.906904  -2.603613  18.997150  132.904164
0.502594  0.000000  0.000000  0.000000  -40.152376  8.281234  -9.107494  51.551652  4.471250  10.250551  -6.951221  32.300320  0.701404  20.464110  135.699418
0.502899  0.000000  0.000000  0.000000  -36.653857  16.146797  -9.107494  49.003771  0.803214  -2.269590  -7.938905  37.709048  5.363503  24.858569  126.892889
0.503204  0.000000  0.000000  0.000000  -18.233991  15.105871  -9.107494  50.187060  8.571726  13.951769  -8.493564  21.643722  -2.533120  22.632415  121.050199
0.503509  0.000000  0.000000  0.000000  -34.208726  20.786857  -9.107494  48.470052  10.606629  16.613549  -3.451570  32.289578  -10.842588  32.791874  133.120493
0.503814  0.000000  0.000000  0.000000  -19.381870  14.352758  -9.107494  52.705126  3.855678  4.520723  -2.499818  29.646148  -2.492575  28.349434  123.241833
0.504120  0.000000  0.000000  0.000000  -22.952236  20.530175  -9.107494  49.261433  8.531326  0.840603  0.626383  30.495083  -2.927719  22.242314  120.548545
0.504425  0.000000  0.000000  0.000000  -34.770607  0.974691  -3.107494  44.914616  15.791679  2.795778  -3.376128  30.631814  -2.684567  26.327500  126.512243
0.504730  0.000000  0.000000  0.000000  -29.445400  13.184742  -3.107494  52.257309  -8.598924  -3.725062  -7.314984  34.598847  -6.597334  25.749753  130.491269
0.505035  0.000000  0.000000  0.000000  -32.630930  19.345932  -3.107494  50.674148  10.418970  8.707414  -4.866429  39.205418  -3.495254  22.225378  135.987328
0.505340  0.000000  0.000000  0.000000  -44.186413  15.391649  -3.107494  48.776384  -2.629418  8.337371  5.247403  32.084591  -0.566807  30.310485  120.200788
0.505645  0.000000  0.000000  0.000000  -23.196251  11.719253  -3.107494  52.439136  -0.685252  11.102069  -6.783474  38.097604  3.824946  31.882676  127.748988
0.505951  0.000000  0.000000  0.000000  -27.005874  7.717376  -3.107494  52.090960  0.815298  7.758603  -4.294272  24.142080  4.306861  26.701988  119.981397
0.506256  0.000000  0.000000  0.000000  -23.221738  20.914246  -3.107494  51.670223  18.671285  6.106973  4.423449  37.131456  -12.591056  29.474590  120.008519
0.506561  0.000000  0.000000  0.000000  -15.436152  15.385305  -3.107494  50.392799  -1.004033  7.361131  -1.116212  21.612689  1.360550  35.596760  126.734619
0.506866  0.000000  0.000000  0.000000  -35.753975  19.620162  -3.107494  53.772830  6.459927  6.990573  3.442417  22.277526  -4.190545  33.363231  125.982465
0.507171  0.000000  0.000000  0.000000  -23.109543  18.859820  -3.107494  50.084886  5.825968  -3.429318  5.370158  32.649758  -1.267769  18.362975  117.534119
0.507476  0.000000  0.000000  0.000000  -34.770607  0.974691  2.892506  45.938468  11.515477  -1.536670  -3.376128  30.631814  -2.684567  26.327500  126.512243
0.507782  0.000000  0.000000  0.000000  -42.154579  4.279240  2.892506  54.420457  -6.875503  2.118414  -1.718747  24.432780  -4.554740  17.124411  129.233754
0.508087  0.000000  0.000000  0.000000  -22.659882  15.388549  2.892506  50.649194  -6.810024  -4.885909  -5.627049  31.762425  5.808779  36.059339  130.381147
0.508392  0.000000  0.000000  0.000000  -51.330781  13.322082  2.892506  53.264103  -2.896264  3.493657  -2.561380  35.584817  -8.125705  35.748359  127.073995
0.508697  0.000000  0.000000  0.000000  -47.946864  14.499045  2.892506  52.902703  -9.597825  0.280326  -3.007163  35.490220  -10.027687  22.868069  122.950781
0.509002  0.000000  0.000000  0.000000  -19.631112  17.441312  2.892506  48.301181  0.098079  5.581981  5.988622  34.779659  2.432954  25.988209  128.553521
0.509307  0.000000  0.000000  0.000000  -19.155538  15.936221  2.892506  44.092712  -13.122384  -3.365235  2.783105  33.586794  -6.631470  31.481403  130.813142
0.509612  0.000000  0.000000  0.000000  -21.887009  18.212830  2.892506  41.672897  -10.091732  -9.652003  -1.333956  40.220358  6.857701  28.291685  127.114086
0.509918  0.000000  0.000000  0.000000  -31.043012  5.114337  2.892506  52.698039  -12.289238  -1.282310  -2.030568  33.961023  -5.442099  19.873212  125.078288
0.510223  0.000000  0.000000  0.000000  -34.770607  0.974691  8.892506  46.621604  7.177148  -5.738288  -3.376128  30.631814  -2.684567  26.327500  126.512243
0.510528  0.000000  0.000000  0.000000  -15.236774  5.312351  8.892506  53.177084  -3.311817  -1.493814  0.532382  33.756990  -8.604051  17.151087  129.652377
0.510833  0.000000  0.000000  0.000000  -40.535571  15.871690  8.892506  54.817438  -13.023770  -1.873044  -4.112546  26.671267  -9.679343  32.754855  129.437124
0.511138  0.000000  0.000000  0.000000  -30.178226  7.713498  8.892506  42.556768  -17.466127  -10.286869  -3.660747  29.846988  -11.422279  26.136205  123.437844
0.511443  0.000000  0.000000  0.000000  -22.583434  12.383442  8.892506  49.788510  -11.862199  -10.207314  3.944351  40.465079  7.177677  32.118014  119.520097
0.511749  0.000000  0.000000  0.000000  -31.983629  6.006636  8.892506  54.853311  -7.811307  0.614349  -8.698266  38.179272  -1.089065  18.370751  119.334417
0.512054  0.000000  0.000000  0.000000  -21.703247  6.129782  8.892506  52.737090  -10.445533  -11.276098  -9.683022  38.744463  -1.000787  34.958014  122.897996
0.512359  0.000000  0.000000  0.000000  -47.688409  17.401574  8.892506  55.783553  -6.785035  1.266549  -11.536617  23.906973  -7.820982  27.560223  132.090684
0.512664  0.000000  0.000000  0.000000  -18.515255  12.763037  8.892506  40.067952  -14.201381  -9.272108  -5.064309  21.741221  4.730343  26.904985  120.310670
0.512969  0.000000  0.000000  0.000000  -17.335252  15.484082  8.892506  39.279049  -14.980750  -14.595587  -4.837902  28.117148  -4.766085  29.535510  117.735401
0.513274  0.000000  0.000000  0.000000  -45.886621  10.842396  8.892506  47.701807  -15.989636  -4.352825  5.916025  38.405582  2.784915  25.741592  122.625804
0.513579  0.000000  0.000000  0.000000  -22.416766  1.455130  8.892506  48.449410  -17.175268  -11.327672  -7.492708  23.107138  2.233374  20.000168  125.407655
0.513885  0.000000  0.000000  0.000000  -39.087574  5.871602  8.892506  56.038539  -9.446202  -7.789791  -7.486133  30.064098  -12.599336  17.138131  130.201460
0.514190  0.000000  0.000000  0.000000  -26.454203  15.657901  8.892506  47.745632  -7.140552  -9.957376  -5.817573  26.054622  -8.328978  19.166132  134.787866
0.514495  0.000000  0.000000  0.000000  -27.954622  18.208991  8.892506  45.179845  -16.778886  -7.652218  1.515473  31.390451  -8.837802  33.430932  122.755225
0.514800  0.000000  0.000000  0.000000  -34.770607  0.974691  14.892506  46.980489  2.801365  -9.860118  -3.376128  30.631814  -2.684567  26.327500  126.512243
0.515105  0.000000  0.000000  0.000000  -26.245976  15.401996  14.892506  46.897712  -13.552885  -9.630649  1.039725  29.591990  -6.341024  20.624491  119.795677
0.515410  0.000000  0.000000  0.000000  -33.456182  20.151118  14.892506  55.839970  -20.351700  0.017545  -2.244792  29.719565  5.046750  22.799370  117.413746
0.515716  0.000000  0.000000  0.000000  -18.164910  19.587667  14.892506  55.553844  9.071458  -0.820719  -5.441649  35.915490  -4.887009  34.181802  130.940795
0.516021  0.000000  0.000000  0.000000  -45.845772  -1.571686  14.892506  54.217036  -20.515761  -8.553829  -12.316184  24.108443  -1.497058  34.854475  126.347345
0.516326  0.000000  0.000000  0.000000  -28.614701  12.108571  14.892506  53.835782  -13.093735  -7.154080  -5.793500  22.428346  -5.066022  33.497883  128.015371
0.516631  0.000000  0.000000  0.000000  -48.198617  16.034172  14.892506  52.937105  -17.407958  -0.362141  -3.548436  28.929358  0.009892  27.598054  132.806843
